<svg width="1067" height="9" viewBox="0 0 1067 9" fill="none" xmlns="http://www.w3.org/2000/svg">
<path d="M0.646447 4.26925C0.451184 4.46451 0.451184 4.78109 0.646447 4.97636L3.82843 8.15834C4.02369 8.3536 4.34027 8.3536 4.53553 8.15834C4.7308 7.96307 4.7308 7.64649 4.53553 7.45123L1.70711 4.6228L4.53553 1.79438C4.7308 1.59911 4.7308 1.28253 4.53553 1.08727C4.34027 0.892007 4.02369 0.892007 3.82843 1.08727L0.646447 4.26925ZM1066.35 4.97636C1066.55 4.78109 1066.55 4.46451 1066.35 4.26925L1063.17 1.08727C1062.98 0.892007 1062.66 0.892007 1062.46 1.08727C1062.27 1.28253 1062.27 1.59911 1062.46 1.79438L1065.29 4.6228L1062.46 7.45123C1062.27 7.64649 1062.27 7.96307 1062.46 8.15834C1062.66 8.3536 1062.98 8.3536 1063.17 8.15834L1066.35 4.97636ZM1 5.1228H1066V4.1228H1V5.1228Z" fill="white"/>
</svg>
