<svg width="469" height="9" viewBox="0 0 469 9" fill="none" xmlns="http://www.w3.org/2000/svg">
<path d="M0.646447 4.26925C0.451184 4.46451 0.451184 4.78109 0.646447 4.97636L3.82843 8.15834C4.02369 8.3536 4.34027 8.3536 4.53553 8.15834C4.7308 7.96307 4.7308 7.64649 4.53553 7.45123L1.70711 4.6228L4.53553 1.79438C4.7308 1.59911 4.7308 1.28253 4.53553 1.08727C4.34027 0.892007 4.02369 0.892007 3.82843 1.08727L0.646447 4.26925ZM468.354 4.97636C468.549 4.78109 468.549 4.46451 468.354 4.26925L465.172 1.08727C464.976 0.892007 464.66 0.892007 464.464 1.08727C464.269 1.28253 464.269 1.59911 464.464 1.79438L467.293 4.6228L464.464 7.45123C464.269 7.64649 464.269 7.96307 464.464 8.15834C464.66 8.3536 464.976 8.3536 465.172 8.15834L468.354 4.97636ZM1 5.1228H468V4.1228H1V5.1228Z" fill="white"/>
</svg>
